<svg xmlns="http://www.w3.org/2000/svg" xmlns:xlink="http://www.w3.org/1999/xlink" xmlns:fi="http://pattern.flaticon.com/" x="0" y="0" width="700" height="350" viewBox="0 0 700 350"><rect x="0px" y="0px" width="100%" height="100%" opacity="1" fill="#b9b0ef"/><defs><path d="m512 391.902344-102.394531-185.214844h39.929687l-124.492187-206.6875-69.042969 114.632812-69.042969-114.632812-124.492187 206.6875h39.929687l-102.394531 185.214844h141.964844v61.253906h-141.8828128v29.992188h511.8671878v-29.992188h-141.914063v-61.253906zm-231.945312 0v61.253906h-48.109376v-61.253906zm29.992187 0h29.996094v61.253906h-29.996094zm14.996094-333.773438 71.414062 118.570313h-37.703125l102.394532 185.210937h-103.816407l-85.816406-155.21875h39.933594l-37.941407-62.996094zm-171.796875 118.566406h-37.703125l71.414062-118.566406 71.414063 118.566406h-37.707032l102.394532 185.214844h-272.207032zm18.710937 215.207032h29.996094v61.253906h-29.996094zm0 0" transform="matrix(0.0390625 0 0 0.0390625 77.5 340)" id="L1_23"/><path d="m512 167.695312h-203.238281v-167.695312h-105.523438v167.695312h-203.238281v104.414063h35.84375l44.425781 239.890625h351.460938l44.425781-239.890625h35.839844v-104.414063zm-278.765625-137.695312h45.527344v212.109375h-45.527344zm-203.234375 167.695312h173.238281v44.414063h-173.238281zm415.648438 74.414063-38.875 209.890625h-301.550782l-38.871094-209.890625zm36.351562-30h-173.238281v-44.414063h173.238281zm0 0" transform="matrix(0.0390625 0 0 0.0390625 252.5 340)" id="L1_24"/><path d="m361.839844 181.699219v-74.007813h-60.007813v-53.085937h-60.003906v-54.605469h-90.007813v37.917969h-60.007812v47.78125h-60.007812v96h-31.804688l37.539062 330.300781h318.5625l37.542969-330.300781zm-30-44.007813v44.007813h-30.007813v-44.007813zm-60.007813-53.085937v108.554687l-28.402343 56.796875h-1.601563v-165.351562zm-60.007812-54.605469v219.957031h-30.003907v-219.957031zm-60.003907 37.921875v182.035156h-1.605468l-28.402344-56.800781v-125.234375zm-90.011718 47.777344h30.003906v66h-30.003906zm267.511718 366.300781h-264.996093l-30.71875-270.300781h63.9375l34.128906 68.261719h130.300781l34.132813-68.261719h63.933593zm0 0" transform="matrix(0.13206017156295854 -0.03538541632261026 0.03538541632261026 0.13206017156295854 131.8582453668922 148.15723389058263)" id="L1_25"/><g transform="matrix(0.17578125 0 0 0.17578125 217.5 217.5)" id="L1_27"><path d="m0 0v30h47.589844v79.292969c-26.707032 6.714843-46.539063 30.921875-46.539063 59.679687v281.488282c0 33.933593 27.605469 61.539062 61.539063 61.539062h210.621094c33.933593 0 61.539062-27.605469 61.539062-61.539062v-132.5625h12.695312c42.523438 0 77.121094-34.597657 77.121094-77.121094v-109.9375c0-42.527344-34.597656-77.125-77.121094-77.125h-59.234374v-53.714844zm77.589844 83.71875h180.621094v23.714844h-180.621094zm180.621094-53.71875v23.71875h-180.621094v-23.71875zm-195.621094 107.4375h210.621094c17.390624 0 31.539062 14.144531 31.539062 31.535156v73.996094c-15.867188-8.390625-35.09375-7.535156-50.265625 2.578125-6.476563 4.316406-14.847656 4.316406-21.320313 0-16.585937-11.054687-38.019531-11.058594-54.605468 0-6.476563 4.316406-14.847656 4.316406-21.320313 0-16.585937-11.058594-38.015625-11.058594-54.605469 0-6.476562 4.316406-14.84375 4.316406-21.316406 0-15.175781-10.117187-34.40625-10.96875-50.265625-2.578125v-73.996094c0-17.390625 14.148438-31.535156 31.539063-31.535156zm210.621094 344.5625h-210.621094c-17.390625 0-31.539063-14.148438-31.539063-31.539062v-171.75l12.300781-8.203126c6.476563-4.316406 14.847657-4.316406 21.320313 0 16.585937 11.058594 38.019531 11.058594 54.605469 0 6.476562-4.316406 14.847656-4.316406 21.320312 0 16.585938 11.058594 38.019532 11.058594 54.605469 0 6.476563-4.316406 14.84375-4.316406 21.320313 0 16.585937 11.058594 38.019531 11.058594 54.605468 0 6.476563-4.316406 14.84375-4.316406 21.320313 0l12.300781 8.203126v171.75c0 17.390624-14.152344 31.539062-31.539062 31.539062zm121.355468-241.222656c0 25.980468-21.140625 47.117187-47.121094 47.117187h-12.695312v-118.921875c0-28.757812-19.835938-52.964844-46.539062-59.679687v-25.574219h59.234374c25.980469 0 47.121094 21.136719 47.121094 47.121094zm0 0"/><path d="m248.644531 320.734375-89.578125 89.578125 10.605469 10.609375c11.964844 11.960937 27.871094 18.550781 44.789063 18.550781 16.921874 0 32.828124-6.589844 44.792968-18.550781 24.695313-24.699219 24.695313-64.882813 0-89.582031zm-10.605469 78.972656c-6.296874 6.296875-14.671874 9.765625-23.574218 9.765625-3.609375 0-7.132813-.570312-10.464844-1.667968l42.121094-42.121094c3.800781 11.578125 1.105468 24.835937-8.082032 34.023437zm0 0"/><path d="m56.921875 304.347656h30v32.230469h-30zm0 0"/><path d="m110.640625 331.203125h30v32.230469h-30zm0 0"/></g><g transform="matrix(0.078125 0 0 0.078125 67.5 67.5)" id="L1_28"><path d="m210.0625 512c-115.828125 0-210.0625-94.234375-210.0625-210.066406 0-36.511719 8.417969-73.84375 25.734375-114.128906 15.082031-35.089844 36.609375-71.589844 65.816406-111.59375l11.308594-15.492188 30.386719 36.414062c14.289062-27.90625 34.148437-58.46875 66.761718-88.019531l10.054688-9.113281 10.058594 9.113281c32.609375 29.550781 52.472656 60.117188 66.757812 88.019531l30.390625-36.414062 11.308594 15.492188c29.207031 40.003906 50.734375 76.503906 65.816406 111.59375 17.316407 40.285156 25.734375 77.617187 25.734375 114.132812 0 115.828125-94.234375 210.0625-210.066406 210.0625zm-105.472656-402.449219c-50.1875 72.4375-74.632813 135.515625-74.632813 192.382813 0 99.3125 80.796875 180.105468 180.105469 180.105468 99.3125 0 180.105469-80.792968 180.105469-180.105468 0-56.867188-24.445313-119.945313-74.632813-192.382813l-35.90625 43.027344-9.835937-21.78125c-12.402344-27.464844-29.148438-59.191406-59.730469-89.890625-30.582031 30.699219-47.328125 62.429688-59.726562 89.890625l-9.839844 21.78125zm0 0"/><path d="m210.0625 457.566406c-58.980469 0-106.964844-47.984375-106.964844-106.964844 0-24.355468 15.835938-60.542968 48.414063-110.625 23.117187-35.535156 45.859375-64.289062 46.8125-65.496093l11.738281-14.800781 11.738281 14.800781c.957031 1.207031 23.699219 29.964843 46.8125 65.496093 32.578125 50.082032 48.414063 86.269532 48.414063 110.625 0 58.980469-47.980469 106.964844-106.964844 106.964844zm0-249.21875c-33.703125 44.996094-77.007812 112.660156-77.007812 142.253906 0 42.460938 34.546874 77.007813 77.007812 77.007813s77.007812-34.546875 77.007812-77.007813c0-29.59375-43.300781-97.257812-77.007812-142.253906zm0 0"/></g><path d="m512 121.820312h-76.136719c-28.820312-71.066406-98.578125-121.320312-179.863281-121.320312-81.28125 0-151.039062 50.253906-179.859375 121.320312h-76.140625v145.363282h76.140625c28.820313 71.066406 98.578125 121.320312 179.859375 121.320312 81.285156 0 151.042969-50.253906 179.863281-121.320312h76.136719zm-92.695312 57.679688h-37.390626v-89.949219c20.75 24.851563 34.289063 55.910157 37.390626 89.949219zm-67.398438 147.945312c-13.292969 9.617188-28.074219 17.292969-43.933594 22.605469v-140.546875h43.933594zm-43.933594-147.945312v-140.546875c15.859375 5.308594 30.640625 12.988281 43.933594 22.605469v117.941406zm-30.003906-147.519531v147.519531h-43.933594v-147.519531c7.1875-.964844 14.519532-1.472657 21.964844-1.472657 7.449219 0 14.78125.507813 21.96875 1.472657zm-117.871094 177.523437h43.933594v140.546875c-15.859375-5.3125-30.640625-12.988281-43.933594-22.605469zm0-30.003906v-117.941406c13.292969-9.617188 28.074219-17.292969 43.933594-22.605469v140.546875zm-30.007812-89.949219v89.949219h-37.390625c3.101562-34.039062 16.640625-65.101562 37.390625-89.949219zm-100.082032 147.625v-85.347656h36.730469c-3.09375 13.734375-4.738281 28.015625-4.738281 42.675781 0 14.65625 1.644531 28.9375 4.738281 42.675782h-36.730469zm62.691407-27.671875h37.390625v89.949219c-20.75-24.851563-34.289063-55.914063-37.390625-89.949219zm141.335937 147.519532v-147.519532h43.933594v147.519532c-7.1875.964843-14.519531 1.472656-21.96875 1.472656-7.445312 0-14.777344-.507813-21.964844-1.472656zm147.878906-57.570313v-89.949219h37.390626c-3.101563 34.035156-16.640626 65.097656-37.390626 89.949219zm100.078126-62.277344h-36.726563c3.09375-13.734375 4.738281-28.015625 4.738281-42.675781 0-14.65625-1.644531-28.9375-4.738281-42.675781h36.726563zm0 0" transform="matrix(0.13671875 0 0 0.13671875 315 140)" id="L1_30"/><path d="m376.777344 157.34375c0-53.15625-43.246094-96.398438-96.402344-96.398438-48.042969 0-87.988281 35.328126-95.226562 81.371094h-24.90625v-105.207031l-76.445313-37.109375-13.125 27.035156 59.515625 28.890625v86.390625h-130.1875l18.863281 369.683594h252.703125l13.183594-258.359375c51.132812-2.296875 92.027344-44.609375 92.027344-96.296875zm-117.976563 15.027344-6.335937 124.214844c-2.042969 1.019531-4.03125 2.171874-5.953125 3.453124-8.257813 5.503907-18.925781 5.503907-27.179688 0-17.910156-11.941406-40.917969-12.246093-59.089843-.921874v-126.746094zm-128.613281 0v126.75c-18.171875-11.324219-41.179688-11.023438-59.085938.917968-8.257812 5.503907-18.925781 5.503907-27.179687 0-1.925781-1.285156-3.914063-2.433593-5.957031-3.453124l-6.335938-124.214844zm-82.765625 309.574218-7.6875-150.703124c15.855469 5.488281 33.601563 3.425781 48.035156-6.199219 8.257813-5.503907 18.925781-5.503907 27.183594 0 18.382813 12.253906 42.140625 12.257812 60.523437 0 8.253907-5.503907 18.925782-5.503907 27.179688 0 9.191406 6.128906 19.726562 9.191406 30.261719 9.191406 6.007812 0 12.019531-1 17.777343-2.992187l-7.6875 150.703124zm238.871094-258.535156 4.136719-81.09375h-74.660157c6.828125-29.363281 33.191407-51.320312 64.605469-51.320312 36.585938 0 66.347656 29.765625 66.347656 66.347656 0 34.589844-26.609375 63.0625-60.429687 66.066406zm0 0" transform="matrix(0.078125 0 0 0.078125 242.5 67.5)" id="L1_31"/><g transform="matrix(0.078125 0 0 0.078125 155 330)" id="L1_32"><path d="m325.382812 111.867188v-111.867188h-285.375v111.867188c-26.1875 40.855468-40.007812 87.984374-40.007812 136.605468v263.527344h365.390625v-263.527344c0-48.621094-13.820313-95.75-40.007813-136.605468zm-30.007812-81.863282v71.328125h-225.363281v-71.328125zm40.011719 451.992188h-305.382813v-233.523438c0-41.5625 11.457032-81.890625 33.203125-117.136718h238.976563c21.746094 35.246093 33.203125 75.574218 33.203125 117.136718zm0 0"/><path d="m115.683594 50.667969h134.023437v30.003906h-134.023437zm0 0"/><path d="m123.28125 203.6875-65.972656 128.25 100.449218 82.800781 147.445313-38.957031-37.652344-130.871094zm56.742188 75.074219-18.296876-32.882813 52.992188 15.140625zm-48.511719-25.480469 26.941406 48.425781-8.558594 67.664063-54.84375-45.207032zm47.527343 124.800781 8.804688-69.621093 58.207031-29.765626 21.839844 75.910157zm0 0"/></g><g transform="matrix(0.1171872690320015 0 0 0.1171872690320015 62 232)" id="L1_33"><path d="m276.828125 57.546875h30.003906v30.007813h-30.003906zm0 0"/><path d="m186.808594 57.546875h30.003906v30.007813h-30.003906zm0 0"/><path d="m231.816406 107.558594h30.003906v30.007812h-30.003906zm0 0"/><path d="m321.835938 107.558594h30.003906v30.007812h-30.003906zm0 0"/><path d="m141.796875 107.558594h30.003906v30.007812h-30.003906zm0 0"/><path d="m28.621094 381.925781h-28.621094v47.9375c0 45.289063 36.847656 82.136719 82.136719 82.136719h329.363281c45.289062 0 82.136719-36.84375 82.136719-82.136719v-47.9375h-28.621094v-186.8125h28.621094v-48.554687c0-80.8125-65.746094-146.558594-146.558594-146.558594h-200.519531c-80.8125 0-146.558594 65.746094-146.558594 146.558594v48.554687h28.621094zm1.382812-235.367187c0-64.265625 52.289063-116.554688 116.554688-116.554688h200.519531c64.269531 0 116.554687 52.289063 116.554687 116.554688v18.546875h-433.628906zm405.007813 48.554687v25.570313c-11.058594-.546875-22.382813 1.488281-32.371094 5.851562l-16 6.996094c-5.152344 2.25-10.945313 3.441406-16.757813 3.441406s-11.605468-1.191406-16.757812-3.441406l-16-6.996094c-8.910156-3.894531-18.859375-5.953125-28.773438-5.953125-9.914062 0-19.863281 2.058594-28.773437 5.953125l-16 6.996094c-5.152344 2.25-10.949219 3.441406-16.757813 3.441406-5.8125 0-11.605468-1.191406-16.757812-3.441406l-16-6.996094c-8.914062-3.894531-18.863281-5.953125-28.777344-5.953125-9.910156 0-19.859375 2.058594-28.773437 5.953125l-16 6.996094c-5.152344 2.25-10.945313 3.441406-16.757813 3.441406-5.808594 0-11.605468-1.191406-16.757812-3.441406l-16-6.996094c-9.988282-4.363281-21.328125-6.394531-32.371094-5.851562v-25.570313zm-376.386719 55.640625c1.207031-.101562 2.417969-.15625 3.640625-.15625 5.800781 0 11.582031 1.1875 16.714844 3.433594l16 6.992188c8.914062 3.894531 18.863281 5.953124 28.777343 5.953124 9.910157 0 19.863282-2.058593 28.773438-5.953124l16-6.992188c5.152344-2.253906 10.945312-3.441406 16.757812-3.441406 5.808594 0 11.605469 1.1875 16.757813 3.441406l16 6.992188c8.910156 3.894531 18.859375 5.953124 28.773437 5.953124 9.914063 0 19.863282-2.058593 28.773438-5.953124l16-6.992188c5.152344-2.253906 10.945312-3.441406 16.757812-3.441406s11.605469 1.1875 16.757813 3.441406l16 6.992188c8.910156 3.894531 18.859375 5.953124 28.773437 5.953124 9.914063 0 19.863282-2.058593 28.777344-5.953124l15.996094-6.992188c5.136719-2.246094 10.917969-3.433594 16.71875-3.433594 1.21875 0 2.433594.054688 3.636719.15625v43.609375h-42.5l-57.6875 31.664063-57.691407-31.664063h-218.507812zm405.007812 179.109375c0 28.746094-23.386718 52.132813-52.132812 52.132813h-329.363281c-28.746094 0-52.132813-23.386719-52.132813-52.132813v-17.933593h433.628906zm-405.007812-47.9375v-57.558593h210.816406l65.382813 35.886718 65.382812-35.886718h34.804688v57.558593zm0 0"/></g><g transform="matrix(0.1171872690320015 0 0 0.1171872690320015 303 329)" id="L1_34"><path d="m487.839844 134.714844-1.214844-1.21875c24.742188-30.148438 23.042969-74.875-5.101562-103.019532-14.511719-14.511718-33.804688-22.5-54.324219-22.5-17.972657 0-35 6.128907-48.699219 17.394532l-1.210938-1.210938c-15.578124-15.578125-36.296874-24.160156-58.328124-24.160156-22.035157 0-42.75 8.582031-58.328126 24.160156l-236.472656 236.472656c-15.578125 15.578126-24.160156 36.292969-24.160156 58.328126 0 22.03125 8.582031 42.746093 24.160156 58.324218l1.21875 1.21875c-24.742187 30.148438-23.046875 74.875 5.097656 103.019532 14.511719 14.511718 33.804688 22.503906 54.328126 22.503906 17.96875 0 34.996093-6.128906 48.699218-17.398438l1.210938 1.210938c15.578125 15.582031 36.292968 24.160156 58.328125 24.160156 22.03125 0 42.746093-8.578125 58.324219-24.160156l236.472656-236.472656c32.164062-32.160157 32.164062-84.492188 0-116.652344zm-442.460938 147.132812 236.46875-236.46875c9.914063-9.914062 23.09375-15.371094 37.113282-15.371094 14.019531 0 27.195312 5.457032 37.109374 15.371094l.953126.949219-310.695313 310.691406-.949219-.949219c-9.914062-9.914062-15.371094-23.09375-15.371094-37.109374 0-14.019532 5.457032-27.199219 15.371094-37.113282zm6.316406 178.457032c-18.253906-18.25-18.253906-47.949219-.007812-66.203126l342.402344-342.40625c8.84375-8.84375 20.601562-13.714843 33.109375-13.714843 12.503906 0 24.261719 4.871093 33.105469 13.714843 18.253906 18.25 18.257812 47.949219.011718 66.203126l-342.414062 342.417968c-8.84375 8.835938-20.597656 13.703125-33.097656 13.703125-12.507813 0-24.265626-4.871093-33.109376-13.714843zm414.929688-230.152344-236.472656 236.472656c-9.914063 9.910156-23.09375 15.371094-37.109375 15.371094-14.019531 0-27.199219-5.460938-37.113281-15.371094l-.949219-.953125 310.691406-310.691406.953125.949219c20.460938 20.464843 20.460938 53.757812 0 74.222656zm0 0"/><path d="m154.121094 369.03125c.65625-4.601562 4.328125-8.273438 8.925781-8.929688l13.59375-1.941406c17.71875-2.53125 31.859375-16.671875 34.390625-34.386718l1.941406-13.597657c.65625-4.597656 4.328125-8.269531 8.925782-8.925781l13.597656-1.941406c17.714844-2.53125 31.855468-16.671875 34.386718-34.390625l1.941407-13.59375c.65625-4.597657 4.328125-8.269531 8.925781-8.929688l13.597656-1.941406c17.714844-2.527344 31.855469-16.667969 34.386719-34.386719l1.941406-13.59375c.660157-4.601562 4.328125-8.273437 8.929688-8.929687l13.59375-1.941407c17.714843-2.53125 31.859375-16.671874 34.386719-34.386718l4.648437-32.546875-29.703125-4.242188-4.648438 32.546875c-.65625 4.597656-4.328124 8.269532-8.925781 8.925782l-13.597656 1.941406c-17.714844 2.53125-31.855469 16.671875-34.386719 34.386718l-1.941406 13.597657c-.660156 4.597656-4.328125 8.269531-8.929688 8.925781l-13.59375 1.941406c-17.714843 2.53125-31.859374 16.671875-34.386718 34.390625l-1.945313 13.59375c-.65625 4.597657-4.328125 8.269531-8.925781 8.925781l-13.59375 1.945313c-17.71875 2.527344-31.859375 16.667969-34.390625 34.386719l-1.941406 13.59375c-.65625 4.601562-4.328125 8.269531-8.925781 8.929687l-13.597657 1.941407c-17.714843 2.53125-31.855469 16.671874-34.386719 34.386718l-4.648437 32.546875 29.703125 4.242188zm0 0"/></g></defs><g fi:class="KUsePattern"><pattern id="pattern_L1_23" width="350" height="350" patternUnits="userSpaceOnUse"><use xlink:href="#L1_23" x="-350" y="-350"/><use xlink:href="#L1_23" x="0" y="-350"/><use xlink:href="#L1_23" x="350" y="-350"/><use xlink:href="#L1_23" x="-350" y="0"/><use xlink:href="#L1_23" x="0" y="0"/><use xlink:href="#L1_23" x="350" y="0"/><use xlink:href="#L1_23" x="-350" y="350"/><use xlink:href="#L1_23" x="0" y="350"/><use xlink:href="#L1_23" x="350" y="350"/></pattern><rect x="0" y="0" width="100%" height="100%" fill="url(#pattern_L1_23)"/></g><g fi:class="KUsePattern"><pattern id="pattern_L1_24" width="350" height="350" patternUnits="userSpaceOnUse"><use xlink:href="#L1_24" x="-350" y="-350"/><use xlink:href="#L1_24" x="0" y="-350"/><use xlink:href="#L1_24" x="350" y="-350"/><use xlink:href="#L1_24" x="-350" y="0"/><use xlink:href="#L1_24" x="0" y="0"/><use xlink:href="#L1_24" x="350" y="0"/><use xlink:href="#L1_24" x="-350" y="350"/><use xlink:href="#L1_24" x="0" y="350"/><use xlink:href="#L1_24" x="350" y="350"/></pattern><rect x="0" y="0" width="100%" height="100%" fill="url(#pattern_L1_24)"/></g><g fi:class="KUsePattern"><pattern id="pattern_L1_25" width="350" height="350" patternUnits="userSpaceOnUse"><use xlink:href="#L1_25" x="-350" y="-350"/><use xlink:href="#L1_25" x="0" y="-350"/><use xlink:href="#L1_25" x="350" y="-350"/><use xlink:href="#L1_25" x="-350" y="0"/><use xlink:href="#L1_25" x="0" y="0"/><use xlink:href="#L1_25" x="350" y="0"/><use xlink:href="#L1_25" x="-350" y="350"/><use xlink:href="#L1_25" x="0" y="350"/><use xlink:href="#L1_25" x="350" y="350"/></pattern><rect x="0" y="0" width="100%" height="100%" fill="url(#pattern_L1_25)"/></g><g fi:class="KUsePattern"><pattern id="pattern_L1_27" width="350" height="350" patternUnits="userSpaceOnUse"><use xlink:href="#L1_27" x="-350" y="-350"/><use xlink:href="#L1_27" x="0" y="-350"/><use xlink:href="#L1_27" x="350" y="-350"/><use xlink:href="#L1_27" x="-350" y="0"/><use xlink:href="#L1_27" x="0" y="0"/><use xlink:href="#L1_27" x="350" y="0"/><use xlink:href="#L1_27" x="-350" y="350"/><use xlink:href="#L1_27" x="0" y="350"/><use xlink:href="#L1_27" x="350" y="350"/></pattern><rect x="0" y="0" width="100%" height="100%" fill="url(#pattern_L1_27)"/></g><g fi:class="KUsePattern"><pattern id="pattern_L1_28" width="350" height="350" patternUnits="userSpaceOnUse"><use xlink:href="#L1_28" x="-350" y="-350"/><use xlink:href="#L1_28" x="0" y="-350"/><use xlink:href="#L1_28" x="350" y="-350"/><use xlink:href="#L1_28" x="-350" y="0"/><use xlink:href="#L1_28" x="0" y="0"/><use xlink:href="#L1_28" x="350" y="0"/><use xlink:href="#L1_28" x="-350" y="350"/><use xlink:href="#L1_28" x="0" y="350"/><use xlink:href="#L1_28" x="350" y="350"/></pattern><rect x="0" y="0" width="100%" height="100%" fill="url(#pattern_L1_28)"/></g><g fi:class="KUsePattern"><pattern id="pattern_L1_30" width="350" height="350" patternUnits="userSpaceOnUse"><use xlink:href="#L1_30" x="-350" y="-350"/><use xlink:href="#L1_30" x="0" y="-350"/><use xlink:href="#L1_30" x="350" y="-350"/><use xlink:href="#L1_30" x="-350" y="0"/><use xlink:href="#L1_30" x="0" y="0"/><use xlink:href="#L1_30" x="350" y="0"/><use xlink:href="#L1_30" x="-350" y="350"/><use xlink:href="#L1_30" x="0" y="350"/><use xlink:href="#L1_30" x="350" y="350"/></pattern><rect x="0" y="0" width="100%" height="100%" fill="url(#pattern_L1_30)"/></g><g fi:class="KUsePattern"><pattern id="pattern_L1_31" width="350" height="350" patternUnits="userSpaceOnUse"><use xlink:href="#L1_31" x="-350" y="-350"/><use xlink:href="#L1_31" x="0" y="-350"/><use xlink:href="#L1_31" x="350" y="-350"/><use xlink:href="#L1_31" x="-350" y="0"/><use xlink:href="#L1_31" x="0" y="0"/><use xlink:href="#L1_31" x="350" y="0"/><use xlink:href="#L1_31" x="-350" y="350"/><use xlink:href="#L1_31" x="0" y="350"/><use xlink:href="#L1_31" x="350" y="350"/></pattern><rect x="0" y="0" width="100%" height="100%" fill="url(#pattern_L1_31)"/></g><g fi:class="KUsePattern"><pattern id="pattern_L1_32" width="350" height="350" patternUnits="userSpaceOnUse"><use xlink:href="#L1_32" x="-350" y="-350"/><use xlink:href="#L1_32" x="0" y="-350"/><use xlink:href="#L1_32" x="350" y="-350"/><use xlink:href="#L1_32" x="-350" y="0"/><use xlink:href="#L1_32" x="0" y="0"/><use xlink:href="#L1_32" x="350" y="0"/><use xlink:href="#L1_32" x="-350" y="350"/><use xlink:href="#L1_32" x="0" y="350"/><use xlink:href="#L1_32" x="350" y="350"/></pattern><rect x="0" y="0" width="100%" height="100%" fill="url(#pattern_L1_32)"/></g><g fi:class="KUsePattern"><pattern id="pattern_L1_33" width="350" height="350" patternUnits="userSpaceOnUse"><use xlink:href="#L1_33" x="-350" y="-350"/><use xlink:href="#L1_33" x="0" y="-350"/><use xlink:href="#L1_33" x="350" y="-350"/><use xlink:href="#L1_33" x="-350" y="0"/><use xlink:href="#L1_33" x="0" y="0"/><use xlink:href="#L1_33" x="350" y="0"/><use xlink:href="#L1_33" x="-350" y="350"/><use xlink:href="#L1_33" x="0" y="350"/><use xlink:href="#L1_33" x="350" y="350"/></pattern><rect x="0" y="0" width="100%" height="100%" fill="url(#pattern_L1_33)"/></g><g fi:class="KUsePattern"><pattern id="pattern_L1_34" width="350" height="350" patternUnits="userSpaceOnUse"><use xlink:href="#L1_34" x="-350" y="-350"/><use xlink:href="#L1_34" x="0" y="-350"/><use xlink:href="#L1_34" x="350" y="-350"/><use xlink:href="#L1_34" x="-350" y="0"/><use xlink:href="#L1_34" x="0" y="0"/><use xlink:href="#L1_34" x="350" y="0"/><use xlink:href="#L1_34" x="-350" y="350"/><use xlink:href="#L1_34" x="0" y="350"/><use xlink:href="#L1_34" x="350" y="350"/></pattern><rect x="0" y="0" width="100%" height="100%" fill="url(#pattern_L1_34)"/></g></svg>